<svg width="18px" height="20px" xmlns="http://www.w3.org/2000/svg" viewBox="0 0 1024 1024"><g transform="translate(0,1024) scale(0.1,-0.1)"><path d="M5015 9860 c-125 -61 -171 -231 -101 -374 89 -181 363 -161 432 31 16 46 18 154 3 207 -13 45 -76 118 -123 140 -49 23 -160 21 -211 -4z" /><path d="M5023 8738 c-118 -57 -170 -194 -128 -336 52 -174 274 -224 402 -90 46 48 63 96 63 180 -1 125 -42 199 -134 242 -68 32 -143 34 -203 4z" /><path d="M5059 7626 c-62 -16 -122 -66 -151 -124 -19 -38 -23 -63 -23 -132 0 -99 19 -144 84 -203 105 -94 279 -66 356 57 26 42 30 61 33 131 3 67 0 91 -18 133 -29 66 -84 117 -151 136 -61 19 -69 19 -130 2z" /><path d="M5022 6484 c-66 -33 -107 -80 -127 -146 -64 -215 97 -402 296 -345 62 18 128 78 154 139 17 43 20 154 4 207 -42 141 -197 210 -327 145z" /><path d="M5077 5379 c-128 -31 -206 -144 -195 -282 6 -75 33 -131 86 -179 118 -106 301 -68 368 76 52 111 23 264 -62 334 -55 45 -135 66 -197 51z" /><path d="M5060 4251 c-143 -44 -211 -191 -164 -352 23 -77 91 -142 168 -160 44 -10 67 -10 109 0 117 27 179 107 186 239 4 97 -11 144 -66 203 -62 67 -154 94 -233 70z" /><path d="M5036 3116 c-47 -18 -101 -68 -129 -121 -17 -31 -21 -58 -22 -125 0 -105 25 -164 92 -215 125 -95 300 -49 363 97 18 42 21 66 18 133 -3 70 -7 89 -33 131 -42 68 -105 105 -187 110 -40 3 -77 -1 -102 -10z" /><path d="M5072 2000 c-162 -33 -240 -228 -157 -394 79 -160 320 -166 411 -10 23 38 29 63 32 129 5 99 -7 143 -56 197 -62 68 -142 95 -230 78z" /><path d="M5045 867 c-68 -26 -104 -58 -132 -115 -70 -143 -23 -312 104 -372 39 -18 60 -21 124 -18 69 3 81 6 116 34 21 17 51 49 67 72 25 35 30 53 34 119 5 93 -7 145 -49 202 -55 76 -176 112 -264 78z" /></g></svg>