<svg width="18px" height="20px" xmlns="http://www.w3.org/2000/svg" viewBox="0 0 1024 1024"><g transform="translate(0,1024) scale(0.1,-0.1)"><path d="M5067 9925 c-66 -17 -127 -62 -157 -115 -22 -39 -25 -57 -25 -140 0 -78 4 -102 22 -135 45 -85 114 -125 213 -125 69 0 110 14 158 55 57 48 76 97 76 200 0 79 -3 97 -27 142 -50 96 -158 145 -260 118z" /><path d="M5050 8798 c-45 -13 -102 -54 -127 -92 -35 -54 -46 -104 -41 -187 4 -64 10 -87 34 -126 59 -95 185 -138 288 -99 65 25 131 100 145 165 33 156 -23 285 -145 330 -59 23 -99 25 -154 9z" /><path fill="steelblue" d="M2535 7811 c-47 -21 -90 -68 -117 -128 -17 -40 -18 -129 -16 -2575 l3 -2535 30 -48 c17 -27 50 -63 74 -80 l43 -30 2556 -3 2555 -2 45 21 c54 27 107 97 122 162 15 69 14 4987 -1 5057 -14 64 -61 127 -118 157 l-44 23 -2546 0 c-2448 0 -2548 -1 -2586 -19z m4796 -461 c19 -11 19 -46 19 -2230 0 -2184 0 -2219 -19 -2230 -14 -7 -720 -10 -2213 -10 -1969 0 -2196 2 -2216 16 l-22 15 0 2209 0 2209 22 15 c20 14 247 16 2216 16 1493 0 2199 -3 2213 -10z" /><path d="M5053 6970 c-62 -13 -102 -36 -161 -94 -42 -41 -57 -64 -72 -115 -19 -60 -20 -95 -20 -687 0 -606 -1 -624 -19 -634 -13 -6 -236 -10 -653 -10 l-633 0 -52 -24 c-69 -32 -138 -105 -163 -173 -56 -150 10 -322 151 -392 l62 -31 634 0 c418 0 641 -4 654 -10 18 -10 19 -28 19 -633 0 -649 1 -663 43 -743 24 -46 98 -111 152 -135 63 -28 159 -30 235 -4 40 13 70 33 111 74 98 99 93 59 97 791 2 579 4 636 19 648 13 9 160 12 653 12 l636 0 51 25 c62 31 127 99 156 163 31 67 30 178 -2 249 -27 61 -102 135 -164 163 -40 19 -72 20 -678 20 -492 0 -639 3 -652 13 -15 11 -17 68 -19 647 -3 631 -3 635 -25 690 -27 66 -99 141 -163 169 -55 23 -140 33 -197 21z" /><path d="M8320 5328 c-70 -36 -103 -74 -121 -142 -17 -61 -5 -141 28 -195 61 -101 229 -143 349 -87 183 85 188 335 9 429 -28 14 -65 22 -120 25 -75 3 -84 2 -145 -30z" /><path d="M9471 5344 c-159 -59 -206 -269 -87 -389 57 -57 124 -79 221 -73 91 6 150 38 197 106 28 40 33 58 36 117 6 107 -35 182 -122 227 -55 28 -182 34 -245 12z" /></g></svg>