<svg width="18px" height="20px" xmlns="http://www.w3.org/2000/svg" viewBox="0 0 1024 1024"><g transform="translate(0,1024) scale(0.1,-0.1)"><path d="M5067 9925 c-66 -17 -127 -62 -157 -115 -22 -39 -25 -57 -25 -140 0 -78 4 -102 22 -135 45 -85 114 -125 213 -125 69 0 110 14 158 55 57 48 76 97 76 200 0 79 -3 97 -27 142 -50 96 -158 145 -260 118z" /><path d="M5050 8798 c-45 -13 -102 -54 -127 -92 -35 -54 -46 -104 -41 -187 4 -64 10 -87 34 -126 59 -95 185 -138 288 -99 65 25 131 100 145 165 33 156 -23 285 -145 330 -59 23 -99 25 -154 9z" /><path d="M5012 7654 c-96 -48 -137 -129 -130 -253 6 -91 30 -144 89 -194 117 -101 289 -60 366 87 25 46 24 198 -1 249 -42 84 -108 128 -206 134 -56 4 -72 1 -118 -23z" /><path d="M5065 6551 c-80 -20 -154 -89 -175 -166 -20 -71 -9 -183 24 -239 64 -109 198 -148 313 -91 112 56 159 192 117 334 -34 116 -162 190 -279 162z" /><path d="M5051 5420 c-52 -12 -113 -63 -141 -116 -29 -56 -39 -164 -21 -230 16 -58 79 -127 143 -154 111 -48 245 4 301 116 23 46 31 141 17 209 -10 50 -20 66 -64 110 -67 68 -139 88 -235 65z" /><path d="M6096 5345 c-53 -19 -85 -44 -121 -94 -25 -36 -30 -54 -33 -115 -4 -80 8 -121 53 -174 90 -107 314 -109 406 -5 44 51 59 92 59 165 0 144 -105 239 -264 238 -34 -1 -79 -7 -100 -15z" /><path d="M7240 5351 c-149 -46 -220 -205 -151 -339 44 -85 127 -131 237 -132 60 0 80 5 135 33 51 25 70 42 94 81 26 44 30 59 30 126 0 67 -4 82 -30 126 -24 39 -43 56 -94 82 -54 27 -74 32 -130 31 -36 0 -77 -4 -91 -8z" /><path d="M8320 5328 c-70 -36 -103 -74 -121 -142 -17 -61 -5 -141 28 -195 61 -101 229 -143 349 -87 183 85 188 335 9 429 -28 14 -65 22 -120 25 -75 3 -84 2 -145 -30z" /><path d="M9471 5344 c-159 -59 -206 -269 -87 -389 57 -57 124 -79 221 -73 91 6 150 38 197 106 28 40 33 58 36 117 6 107 -35 182 -122 227 -55 28 -182 34 -245 12z" /></g></svg>