<svg width="18px" height="20px" xmlns="http://www.w3.org/2000/svg" viewBox="0 0 1024 1024"><g transform="translate(0,1024) scale(0.1,-0.1)"><path d="M5067 9925 c-66 -17 -127 -62 -157 -115 -33 -61 -41 -199 -15 -266 40 -104 113 -154 228 -154 68 0 79 3 123 33 27 18 62 53 79 81 28 46 30 56 30 150 0 91 -3 106 -27 153 -51 96 -159 145 -261 118z" /><path d="M5050 8798 c-45 -13 -104 -56 -127 -93 -33 -55 -41 -89 -42 -176 -1 -72 3 -93 24 -136 74 -147 268 -178 384 -60 67 68 90 190 56 303 -37 126 -169 198 -295 162z" /><path d="M5012 7655 c-92 -47 -132 -121 -132 -241 0 -104 16 -150 70 -205 33 -35 59 -51 99 -63 67 -20 75 -20 139 -1 62 19 115 62 145 119 30 57 32 222 3 279 -42 85 -108 128 -206 134 -56 4 -73 1 -118 -22z" /><path d="M5065 6551 c-51 -13 -92 -39 -127 -81 -44 -51 -58 -98 -58 -196 0 -128 48 -205 153 -249 87 -36 217 -3 273 71 49 64 69 195 44 286 -32 115 -173 198 -285 169z" /><path d="M5051 5420 c-52 -12 -113 -63 -141 -116 -29 -57 -39 -182 -20 -253 27 -101 146 -180 251 -168 127 15 208 105 217 243 7 111 -11 168 -72 229 -67 68 -139 88 -235 65z" /><path d="M6096 5345 c-53 -19 -85 -44 -121 -94 -25 -36 -30 -54 -33 -115 -4 -80 8 -121 53 -174 90 -107 314 -109 406 -5 44 51 59 92 59 165 0 144 -105 239 -264 238 -34 -1 -79 -7 -100 -15z" /><path d="M7240 5351 c-149 -46 -220 -205 -151 -339 44 -85 127 -131 237 -132 60 0 80 5 135 33 51 25 70 42 94 81 26 44 30 59 30 126 0 67 -4 82 -30 126 -24 39 -43 56 -94 82 -54 27 -74 32 -130 31 -36 0 -77 -4 -91 -8z" /><path d="M8320 5328 c-70 -36 -103 -74 -121 -142 -17 -61 -5 -141 28 -195 61 -101 229 -143 349 -87 183 85 188 335 9 429 -28 14 -65 22 -120 25 -75 3 -84 2 -145 -30z" /><path d="M9471 5344 c-159 -59 -206 -269 -87 -389 57 -57 124 -79 221 -73 91 6 150 38 197 106 28 40 33 58 36 117 6 107 -35 182 -122 227 -55 28 -182 34 -245 12z" /><path d="M5061 4279 c-124 -37 -187 -134 -179 -276 9 -157 95 -243 240 -243 126 1 220 86 233 213 14 131 -32 236 -125 282 -54 28 -123 37 -169 24z" /><path d="M5030 3139 c-64 -29 -117 -84 -136 -142 -24 -74 -16 -190 19 -249 95 -162 341 -152 421 16 24 50 30 138 16 206 -31 145 -189 228 -320 169z" /><path d="M5020 2009 c-94 -42 -131 -104 -138 -224 -4 -68 -1 -89 18 -133 46 -106 159 -167 266 -143 138 31 209 151 188 317 -19 158 -187 250 -334 183z" /><path d="M5060 901 c-79 -26 -151 -93 -169 -158 -15 -54 -13 -153 4 -202 48 -138 201 -201 331 -136 95 47 144 153 129 278 -10 95 -52 159 -129 199 -43 22 -128 32 -166 19z" /></g></svg>